<?xml version="1.0" encoding="iso-8859-1"?>
<!-- Generator: Adobe Illustrator 16.0.0, SVG Export Plug-In . SVG Version: 6.00 Build 0)  -->
<!DOCTYPE svg PUBLIC "-//W3C//DTD SVG 1.1//EN" "http://www.w3.org/Graphics/SVG/1.1/DTD/svg11.dtd">
<svg version="1.1" id="Capa_1" xmlns="http://www.w3.org/2000/svg" xmlns:xlink="http://www.w3.org/1999/xlink" x="0px" y="0px"
	 width="59.859px" height="59.859px" viewBox="0 0 59.859 59.859" style="enable-background:new 0 0 59.859 59.859;"
	 xml:space="preserve">
<g>
	<path fill="#FFFFFF" d="M50.097,26.697c0.412,0,0.802-0.079,1.177-0.192l-2.821,17.957c-0.103-0.003-0.208,0.001-0.318,0.019
		c-7.054,1.102-12.621-2.535-15.965-8.299c1.012-1.847,0.144-4.764-2.609-4.764c-3.969,0-4.017,6.059-0.158,6.227
		c3.871,6.86,10.542,10.825,18.557,9.963l-1.925,12.252H13.841L8.988,26.536c0.345,0.094,0.701,0.16,1.075,0.16v0.001H50.097z
		 M50.098,20.453H10.063c-1.17,0-2.122,0.951-2.122,2.121c0,0.62,0.272,1.174,0.698,1.562c0.377,0.344,0.874,0.56,1.424,0.56h40.035
		c0.55,0,1.048-0.216,1.425-0.561c0.425-0.388,0.696-0.941,0.696-1.561C52.22,21.404,51.268,20.453,50.098,20.453z M11.789,15.674
		c-3.712-5.532,4.925-7.697,6.902-1.919c0.475,1.389,2.627,1.586,3.01,0c2.755-11.427,18.036-9.028,17.744,2.576
		c-0.032,1.283,1.326,1.81,2.348,1.348c2.865-2.917,5.611-1.354,6.396,0.774c0.033,0.089,0.068,0.176,0.093,0.267
		c0.623,0.453,1.099,0.247,1.41-0.267c0.506-0.832,0.585-2.475,0.165-3.469c-1.253-2.968-4.782-2.473-7.396-1.825
		C41.066,1.025,25.119-0.736,19.851,9.752C14.649,4.147,3.708,9.221,9.093,17.249C10.209,18.911,12.914,17.35,11.789,15.674z
		 M40.794,5.825c0-2.737,2.228-4.963,4.964-4.963s4.963,2.226,4.963,4.963c0,2.737-2.227,4.963-4.963,4.963
		C43.021,10.788,40.794,8.562,40.794,5.825z M42.794,5.825c0,1.636,1.327,2.963,2.964,2.963c1.636,0,2.963-1.327,2.963-2.963
		c0-1.636-1.326-2.963-2.963-2.963S42.794,4.189,42.794,5.825z M14.961,3.57c0-1.968,1.602-3.57,3.57-3.57
		c1.968,0,3.57,1.602,3.57,3.57c0,1.968-1.601,3.57-3.57,3.57C16.563,7.14,14.961,5.538,14.961,3.57z M16.961,3.57
		c0,0.867,0.703,1.57,1.57,1.57c0.867,0,1.57-0.703,1.57-1.57c0-0.867-0.703-1.57-1.57-1.57C17.664,2,16.961,2.703,16.961,3.57z"/>
</g>
<g>
</g>
<g>
</g>
<g>
</g>
<g>
</g>
<g>
</g>
<g>
</g>
<g>
</g>
<g>
</g>
<g>
</g>
<g>
</g>
<g>
</g>
<g>
</g>
<g>
</g>
<g>
</g>
<g>
</g>
</svg>
