<?xml version="1.0" encoding="iso-8859-1"?>
<!-- Generator: Adobe Illustrator 19.0.0, SVG Export Plug-In . SVG Version: 6.00 Build 0)  -->
<svg version="1.1" id="Layer_1" xmlns="http://www.w3.org/2000/svg" xmlns:xlink="http://www.w3.org/1999/xlink" x="0px" y="0px"
	 viewBox="0 0 490.999 490.999" style="enable-background:new 0 0 490.999 490.999;" xml:space="preserve">
<g>
	<g>
		<path fill="#F3BB45" d="M475.91,88.718c-30.2-57.3-143.9-126.9-230.4-57.3c-90.3-70.4-201.2,0-230.4,57.3c-17.7,34.4-29.2,94.9,20.8,181.4
			c66.7,117.8,191.8,210.6,197,214.8c7.4,5.4,15.7,5.7,25,0c5.2-4.2,130.3-97,197-214.8
			C505.11,183.618,493.61,123.118,475.91,88.718z M419.61,249.318c-51.1,89.6-141.8,166.8-174.1,192.9
			c-33.1-25.9-121.7-102.1-173-191h72.9c7.3,0,13.6-3.1,17.7-9.4l31.3-50l40.7,108.4c6.1,14.1,23.2,19.6,36.5,5.2l46.9-64.6h81.3
			c11.5,0,20.9-9.4,20.9-20.9s-9.4-20.9-20.9-20.9h-91.7c-6.3,0-12.5,3.1-16.7,8.3l-31.3,42.7l-41.7-111.6
			c-1.3-7.2-20.5-24.3-36.5-4.2l-46.9,75.1h-82.5c-15.3-40.1-15.9-74.6-0.9-103.1c21.9-42.5,108.2-101.9,182.4-34.1
			c7.3,5.2,16.7,5.2,24,0c73-66.3,159.5-8.3,181.4,34.4C459.21,144.018,451.91,191.918,419.61,249.318z"/>
	</g>
</g>
<g>
</g>
<g>
</g>
<g>
</g>
<g>
</g>
<g>
</g>
<g>
</g>
<g>
</g>
<g>
</g>
<g>
</g>
<g>
</g>
<g>
</g>
<g>
</g>
<g>
</g>
<g>
</g>
<g>
</g>
</svg>
